<?xml version="1.0" standalone="yes"?>
<svg xmlns="http://www.w3.org/2000/svg" width="400" height="400">
<path style="fill:#2f6bd1; stroke:none;" d="M0 0L0 400L228 400L228 392L232 392L232 368L236 368L236 360L232 360L232 352L236 352L236 320L240 320L240 312L236 312L236 296L240 296C240 287.203 244.029 270.392 232 270L232 269L241 269L240 271L246 271L246 270L244 270L244 269L264 269L264 268C254.626 268 238.332 271.116 230 267L229 267L228 267L226 269L229 266L229 265L222 260L224 261L220 256L225 242L226 242L226 244L227 244L226 241L229 242L228 239L230 240L238 223L234 225C234.747 221.218 235.179 216.22 240 218L243 215L244 210L242 211L242 210L244 192L248 192L248 184L244 184L244 176L256 176L256 168L252 168L252 160L288 159L288 158L232 158L203 159L203 157L201 158L201 135L244 134L244 133L225 133L225 132L264 130L264 129L260 127L252 127L252 104L256 104L256 72L260 72L260 0L0 0z"/>
<path style="fill:#2e52ae; stroke:none;" d="M260 0L260 72L256 72L256 104L252 104L252 127L260 127L264 129L264 130L225 132L225 133L244 133L244 134L240 134L240 135C263.181 135 291.751 130.25 313 141.131C361.082 165.753 361.862 227.475 317 256.302C297.441 268.87 274.124 266 252 266C245.529 266 229.817 263.112 226 269L228 267L229 267L230 267L230 269L264 268L264 269L244 269L244 270L246 270L246 271L240 271L241 269L232 269L232 270C243.77 270.89 240 287.395 240 296L236 296L236 312L240 312L240 320L236 320L236 352L232 352L232 360L236 360L236 368L232 368L232 392L228 392L228 400L400 400L400 0L260 0z"/>
<path style="fill:#2f6bd1; stroke:none;" d="M261 127L262 128L261 127z"/>
<path style="fill:#2e52ae; stroke:none;" d="M254 128L255 129L254 128z"/>
<path style="fill:#2f6bd1; stroke:none;" d="M265 129L266 130L265 129M267 129L268 130L267 129M269 129L270 130L269 129M241 131L242 132L241 131M243 131L244 132L243 131M245 131L246 132L245 131M249 131L250 132L249 131M245 133L246 134L245 133M247 133L248 134L247 133M249 133L250 134L249 133M251 133L252 134L251 133z"/>
<path style="fill:#7090c4; stroke:none;" d="M107 135L107 136C127.75 136 152.813 132.194 173 137L154 135L107 135z"/>
<path style="fill:#2e52ae; stroke:none;" d="M201 135L200 138L201 135z"/>
<path style="fill:#7090c4; stroke:none;" d="M204 135L204 136L297 136L268 135L204 135z"/>
<path style="fill:#2f6bd1; stroke:none;" d="M297 135L298 136L297 135z"/>
<path style="fill:#7090c4; stroke:none;" d="M102.667 136.333L103.333 136.667L102.667 136.333z"/>
<path style="fill:#abc6ed; stroke:none;" d="M104 136L104 137L109 137L104 136z"/>
<path style="fill:#fbfefd; stroke:none;" d="M109 136.425C63.9311 142.56 32.817 196.091 60.0285 236C83.5245 270.46 122.56 265 159 265C168.648 265 187.399 268.601 195.891 263.821C203.12 259.752 201.34 244.77 192.996 243.228C162.862 237.659 129.682 249.435 100 240.41C78.0886 233.747 66.2558 209.376 74.4668 188C82.6831 166.611 101.541 158 123 158C127.59 158 137.888 156.095 141.397 159.603C146.417 164.624 135.467 196.378 151.957 190.242C156.479 188.56 158.237 182.916 160.258 179C164.55 170.686 183.811 146.084 172.772 137.742C168.424 134.457 160.134 136 155 136C139.969 136 123.898 134.397 109 136.425z"/>
<path style="fill:#abc6ed; stroke:none;" d="M171 136L172 137L171 136z"/>
<path style="fill:#2e52ae; stroke:none;" d="M175 136L176 137L175 136z"/>
<path style="fill:#7090c4; stroke:none;" d="M202 136L201 138L202 136z"/>
<path style="fill:#abc6ed; stroke:none;" d="M201 139L205 137L201 139z"/>
<path style="fill:#fbfefd; stroke:none;" d="M205.044 136.742C196.873 140.072 198.244 156.153 207.004 157.772C236.609 163.243 269.903 151.158 299 160.039C324.972 167.967 335.586 196.899 322.123 220C311.511 238.21 294.535 243 275 243C270.759 243 261.87 244.663 258.603 241.397C254.279 237.072 263.749 202.078 247.105 211.18C243.243 213.291 241.646 218.311 239.742 222C235.554 230.113 215.517 256.405 228.109 263.682C233.268 266.664 242.232 265 248 265C265.424 265 283.982 266.899 301 262.522C345.968 250.956 366.241 191.492 333.91 157.004C309.073 130.51 273.889 136 241 136C230.81 136 214.513 132.883 205.044 136.742z"/>
<path style="fill:#abc6ed; stroke:none;" d="M296 136L296 137L299 137L296 136z"/>
<path style="fill:#7090c4; stroke:none;" d="M299 136L300 137L299 136z"/>
<path style="fill:#2f6bd1; stroke:none;" d="M300 136L301 137L300 136z"/>
<path style="fill:#7090c4; stroke:none;" d="M99 137L100 138L99 137z"/>
<path style="fill:#abc6ed; stroke:none;" d="M100.667 137.333L101.333 137.667L100.667 137.333M173 137L174 138L173 137M301.667 137.333L302.333 137.667L301.667 137.333z"/>
<path style="fill:#7090c4; stroke:none;" d="M303 137L304 138L303 137z"/>
<path style="fill:#2f6bd1; stroke:none;" d="M313.667 137.333L314.333 137.667L313.667 137.333z"/>
<path style="fill:#7090c4; stroke:none;" d="M96 138L97 139L96 138z"/>
<path style="fill:#abc6ed; stroke:none;" d="M97 138L98 139L97 138M174 138L175 139L174 138M305 138L306 139L305 138z"/>
<path style="fill:#7090c4; stroke:none;" d="M306 138L307 139L306 138z"/>
<path style="fill:#2f6bd1; stroke:none;" d="M316 138L317 139L316 138z"/>
<path style="fill:#7090c4; stroke:none;" d="M93 139L94 140L93 139z"/>
<path style="fill:#abc6ed; stroke:none;" d="M94.6667 139.333L95.3333 139.667L94.6667 139.333z"/>
<path style="fill:#7090c4; stroke:none;" d="M175 139L176 140L175 139M200 139L201 140L200 139z"/>
<path style="fill:#abc6ed; stroke:none;" d="M307 139L308 140L307 139z"/>
<path style="fill:#7090c4; stroke:none;" d="M308 139L309 140L308 139z"/>
<path style="fill:#2f6bd1; stroke:none;" d="M309 139L310 140L309 139z"/>
<path style="fill:#7090c4; stroke:none;" d="M90.6667 140.333L91.3333 140.667L90.6667 140.333z"/>
<path style="fill:#abc6ed; stroke:none;" d="M92 140L93 141L92 140M175 140L176 141L175 140M200 140L201 141L200 140M309.667 140.333L310.333 140.667L309.667 140.333z"/>
<path style="fill:#7090c4; stroke:none;" d="M311 140L312 141L311 140z"/>
<path style="fill:#2f6bd1; stroke:none;" d="M312 140L313 141L312 140z"/>
<path style="fill:#7090c4; stroke:none;" d="M88 141L89 142L88 141z"/>
<path style="fill:#abc6ed; stroke:none;" d="M89 141L90 142L89 141z"/>
<path style="fill:#7090c4; stroke:none;" d="M176 141L177 142L176 141z"/>
<path style="fill:#abc6ed; stroke:none;" d="M312 141L313 142L312 141z"/>
<path style="fill:#7090c4; stroke:none;" d="M313 141L314 142L313 141M86 142L87 143L86 142z"/>
<path style="fill:#abc6ed; stroke:none;" d="M87 142L88 143L87 142M176 142L176 149L177 149L176 142z"/>
<path style="fill:#2e52ae; stroke:none;" d="M199 142L199 146L200 146L199 142z"/>
<path style="fill:#abc6ed; stroke:none;" d="M314 142L315 143L314 142z"/>
<path style="fill:#7090c4; stroke:none;" d="M315 142L316 143L315 142M84 143L83 145L84 143z"/>
<path style="fill:#abc6ed; stroke:none;" d="M85 143L86 144L85 143M316 143L317 144L316 143z"/>
<path style="fill:#7090c4; stroke:none;" d="M317 143L318 144L317 143z"/>
<path style="fill:#abc6ed; stroke:none;" d="M84 144L85 145L84 144z"/>
<path style="fill:#7090c4; stroke:none;" d="M177 144L177 147L178 147L177 144z"/>
<path style="fill:#abc6ed; stroke:none;" d="M318 144L319 145L318 144z"/>
<path style="fill:#7090c4; stroke:none;" d="M81 145L82 146L81 145z"/>
<path style="fill:#abc6ed; stroke:none;" d="M82 145L83 146L82 145M319 145L320 146L319 145z"/>
<path style="fill:#7090c4; stroke:none;" d="M320 145L321 146L320 145M78 146L78 148L80 146L78 146z"/>
<path style="fill:#abc6ed; stroke:none;" d="M80.6667 146.333L81.3333 146.667L80.6667 146.333M321 146L322 147L321 146z"/>
<path style="fill:#2f6bd1; stroke:none;" d="M322 146L323 147L322 146z"/>
<path style="fill:#abc6ed; stroke:none;" d="M79 147L80 148L79 147z"/>
<path style="fill:#7090c4; stroke:none;" d="M323 147L324 148L323 147M77 148L78 149L77 148z"/>
<path style="fill:#abc6ed; stroke:none;" d="M324 148L325 149L324 148M76 149L77 150L76 149z"/>
<path style="fill:#7090c4; stroke:none;" d="M176 149L177 150L176 149z"/>
<path style="fill:#abc6ed; stroke:none;" d="M325 149L327 151L325 149z"/>
<path style="fill:#7090c4; stroke:none;" d="M326 149L327 150L326 149M74 150L72 153L74 150z"/>
<path style="fill:#abc6ed; stroke:none;" d="M75 150L76 151L75 150M175 150L176 151L175 150z"/>
<path style="fill:#7090c4; stroke:none;" d="M327 150L329 152L327 150z"/>
<path style="fill:#2f6bd1; stroke:none;" d="M328 150L329 151L328 150z"/>
<path style="fill:#abc6ed; stroke:none;" d="M74 151L75 152L74 151z"/>
<path style="fill:#7090c4; stroke:none;" d="M175 151L176 152L175 151z"/>
<path style="fill:#abc6ed; stroke:none;" d="M73 152L74 153L73 152M174 152L175 153L174 152z"/>
<path style="fill:#7090c4; stroke:none;" d="M329 152L330 153L329 152M71 153L72 154L71 153M174 153L175 154L174 153z"/>
<path style="fill:#abc6ed; stroke:none;" d="M200 153L201 154L200 153M330 153L331 154L330 153M70 154L71 155L70 154M173 154L174 155L173 154z"/>
<path style="fill:#2e52ae; stroke:none;" d="M174 154L175 155L174 154z"/>
<path style="fill:#7090c4; stroke:none;" d="M200 154L201 155L200 154z"/>
<path style="fill:#abc6ed; stroke:none;" d="M331 154L332 155L331 154z"/>
<path style="fill:#7090c4; stroke:none;" d="M69 155L70 156L69 155M173 155L174 156L173 155z"/>
<path style="fill:#2e52ae; stroke:none;" d="M200 155L201 156L200 155z"/>
<path style="fill:#abc6ed; stroke:none;" d="M201 155L203 157L201 155z"/>
<path style="fill:#7090c4; stroke:none;" d="M332 155L333 156L332 155z"/>
<path style="fill:#2f6bd1; stroke:none;" d="M333 155L335 157L333 155z"/>
<path style="fill:#7090c4; stroke:none;" d="M68 156L69 157L68 156z"/>
<path style="fill:#abc6ed; stroke:none;" d="M172 156L171 158L172 156z"/>
<path style="fill:#7090c4; stroke:none;" d="M201 156L202 157L201 156z"/>
<path style="fill:#abc6ed; stroke:none;" d="M333 156L334 157L333 156z"/>
<path style="fill:#7090c4; stroke:none;" d="M67 157L64 161L67 157M172 157L173 158L172 157z"/>
<path style="fill:#2e52ae; stroke:none;" d="M201 157L202 158L201 157z"/>
<path style="fill:#7090c4; stroke:none;" d="M203 157L204 158L203 157z"/>
<path style="fill:#abc6ed; stroke:none;" d="M204 157L205 158L204 157M334 157L335 158L334 157M67 158L68 159L67 158M108.667 158.333L109.333 158.667L108.667 158.333z"/>
<path style="fill:#7090c4; stroke:none;" d="M110 158L110 159L139 159L110 158M140 158L141 159L140 158z"/>
<path style="fill:#abc6ed; stroke:none;" d="M141 158L142 159L141 158z"/>
<path style="fill:#7090c4; stroke:none;" d="M171 158L172 159L171 158z"/>
<path style="fill:#2e52ae; stroke:none;" d="M200 158L202 160L200 158M203 158L204 159L203 158z"/>
<path style="fill:#7090c4; stroke:none;" d="M205 158L206 159L205 158M288 158L288 159L291 159L288 158z"/>
<path style="fill:#abc6ed; stroke:none;" d="M291.667 158.333L292.333 158.667L291.667 158.333M335 158L336 159L335 158z"/>
<path style="fill:#2f6bd1; stroke:none;" d="M336 158L337 159L336 158z"/>
<path style="fill:#abc6ed; stroke:none;" d="M66 159L67 160L66 159M104.667 159.333L105.333 159.667L104.667 159.333z"/>
<path style="fill:#7090c4; stroke:none;" d="M106 159L107 160L106 159z"/>
<path style="fill:#abc6ed; stroke:none;" d="M142 159L143 160L142 159z"/>
<path style="fill:#2e52ae; stroke:none;" d="M206 159L207 160L206 159M252 160L252 168L256 168L256 176L244 176L244 184L248 184L248 192L244 192L242 211L244 210L242 212L242 213L247 208C255.472 210.756 259.566 213.359 258.91 223C258.547 228.347 254.306 240.596 262.019 241.852C276.868 244.27 295.312 242.978 308 234.591C328.224 221.222 335.12 189.069 316.907 171.104C301.42 155.829 272.082 156.272 252 160z"/>
<path style="fill:#2f6bd1; stroke:none;" d="M294 159L295 160L294 159z"/>
<path style="fill:#7090c4; stroke:none;" d="M295 159L296 160L295 159z"/>
<path style="fill:#abc6ed; stroke:none;" d="M296.667 159.333L297.333 159.667L296.667 159.333z"/>
<path style="fill:#7090c4; stroke:none;" d="M336 159L337 160L336 159z"/>
<path style="fill:#abc6ed; stroke:none;" d="M65 160L66 161L65 160M101.667 160.333L102.333 160.667L101.667 160.333z"/>
<path style="fill:#7090c4; stroke:none;" d="M103 160L104 161L103 160M142 160L143 161L142 160M170 160L169 163L170 160M298 160L299 161L298 160z"/>
<path style="fill:#abc6ed; stroke:none;" d="M299.667 160.333L300.333 160.667L299.667 160.333z"/>
<path style="fill:#7090c4; stroke:none;" d="M337 160L338 161L337 160z"/>
<path style="fill:#abc6ed; stroke:none;" d="M64 161L65 162L64 161M95 163L95 164L100 162L95 163z"/>
<path style="fill:#7090c4; stroke:none;" d="M100 161L101 162L100 161z"/>
<path style="fill:#abc6ed; stroke:none;" d="M169 161L170 162L169 161z"/>
<path style="fill:#2f6bd1; stroke:none;" d="M300 161L301 162L300 161z"/>
<path style="fill:#7090c4; stroke:none;" d="M301 161L302 162L301 161z"/>
<path style="fill:#abc6ed; stroke:none;" d="M302.667 161.333L303.333 161.667L302.667 161.333M337 161L338 162L337 161M63 162L64 163L63 162z"/>
<path style="fill:#7090c4; stroke:none;" d="M98 162L99 163L98 162z"/>
<path style="fill:#2e52ae; stroke:none;" d="M170 162L169 165L170 162z"/>
<path style="fill:#2f6bd1; stroke:none;" d="M303 162L304 163L303 162z"/>
<path style="fill:#7090c4; stroke:none;" d="M304 162L305 163L304 162z"/>
<path style="fill:#abc6ed; stroke:none;" d="M305 162L306 163L305 162M338 162L339 163L338 162z"/>
<path style="fill:#7090c4; stroke:none;" d="M62 163L63 164L62 163M96 163L97 164L96 163z"/>
<path style="fill:#abc6ed; stroke:none;" d="M168 163L169 164L168 163z"/>
<path style="fill:#2f6bd1; stroke:none;" d="M169 163L170 164L169 163z"/>
<path style="fill:#7090c4; stroke:none;" d="M306 163L307 164L306 163z"/>
<path style="fill:#abc6ed; stroke:none;" d="M307 163L308 164L307 163z"/>
<path style="fill:#7090c4; stroke:none;" d="M339 163L340 164L339 163z"/>
<path style="fill:#abc6ed; stroke:none;" d="M62 164L63 165L62 164M93 164L94 165L93 164z"/>
<path style="fill:#7090c4; stroke:none;" d="M94 164L95 165L94 164M168 164L169 165L168 164M308 164L309 165L308 164z"/>
<path style="fill:#abc6ed; stroke:none;" d="M309 164L311 166L309 164z"/>
<path style="fill:#7090c4; stroke:none;" d="M340 164L341 165L340 164z"/>
<path style="fill:#abc6ed; stroke:none;" d="M61 165L62 166L61 165z"/>
<path style="fill:#7090c4; stroke:none;" d="M92 165L93 166L92 165M142 165L142 169L143 169L142 165z"/>
<path style="fill:#abc6ed; stroke:none;" d="M167 165L166 168L167 168L167 165z"/>
<path style="fill:#2f6bd1; stroke:none;" d="M305 165L306 166L305 165M309 165L310 166L309 165z"/>
<path style="fill:#abc6ed; stroke:none;" d="M340 165L341 166L340 165z"/>
<path style="fill:#2f6bd1; stroke:none;" d="M341 165L342 166L341 165z"/>
<path style="fill:#7090c4; stroke:none;" d="M60 166L59 168L60 166z"/>
<path style="fill:#abc6ed; stroke:none;" d="M90 166L89 168L90 166z"/>
<path style="fill:#7090c4; stroke:none;" d="M91 166L92 167L91 166M167 166L168 167L167 166z"/>
<path style="fill:#2f6bd1; stroke:none;" d="M310 166L311 167L310 166z"/>
<path style="fill:#7090c4; stroke:none;" d="M311 166L312 167L311 166z"/>
<path style="fill:#abc6ed; stroke:none;" d="M312 166L314 168L312 166z"/>
<path style="fill:#7090c4; stroke:none;" d="M341 166L343 168L341 166z"/>
<path style="fill:#abc6ed; stroke:none;" d="M60 167L61 168L60 167z"/>
<path style="fill:#7090c4; stroke:none;" d="M90 167L91 168L90 167z"/>
<path style="fill:#2e52ae; stroke:none;" d="M172 167L173 168L172 167z"/>
<path style="fill:#2f6bd1; stroke:none;" d="M312 167L313 168L312 167z"/>
<path style="fill:#abc6ed; stroke:none;" d="M341 167L342 168L341 167M59 168L58 171L59 168z"/>
<path style="fill:#7090c4; stroke:none;" d="M88.6667 168.333L89.3333 168.667L88.6667 168.333M166 168L167 169L166 168M314 168L315 169L314 168z"/>
<path style="fill:#abc6ed; stroke:none;" d="M342 168L343 169L342 168z"/>
<path style="fill:#7090c4; stroke:none;" d="M58 169L59 170L58 169M87 169L88 170L87 169z"/>
<path style="fill:#abc6ed; stroke:none;" d="M142 169L142 174L143 174L142 169M165 169L166 170L165 169z"/>
<path style="fill:#7090c4; stroke:none;" d="M315 169L316 170L315 169M343 169L344 170L343 169M86 170L87 171L86 170M165 170L166 171L165 170z"/>
<path style="fill:#2e52ae; stroke:none;" d="M166 170L167 171L166 170z"/>
<path style="fill:#7090c4; stroke:none;" d="M316 170L317 171L316 170z"/>
<path style="fill:#abc6ed; stroke:none;" d="M343 170L344 171L343 170z"/>
<path style="fill:#7090c4; stroke:none;" d="M57 171L58 172L57 171z"/>
<path style="fill:#abc6ed; stroke:none;" d="M84 171L85 172L84 171z"/>
<path style="fill:#7090c4; stroke:none;" d="M85 171L86 172L85 171z"/>
<path style="fill:#abc6ed; stroke:none;" d="M164 171L165 172L164 171z"/>
<path style="fill:#2f6bd1; stroke:none;" d="M314 171L315 172L314 171z"/>
<path style="fill:#7090c4; stroke:none;" d="M317 171L318 172L317 171M344 171L345 172L344 171z"/>
<path style="fill:#abc6ed; stroke:none;" d="M57 172L58 173L57 172z"/>
<path style="fill:#7090c4; stroke:none;" d="M84 172L85 173L84 172M318 172L319 173L318 172z"/>
<path style="fill:#abc6ed; stroke:none;" d="M344 172L345 173L344 172z"/>
<path style="fill:#2f6bd1; stroke:none;" d="M345 172L346 173L345 172z"/>
<path style="fill:#7090c4; stroke:none;" d="M56 173L57 174L56 173z"/>
<path style="fill:#abc6ed; stroke:none;" d="M83 173L84 174L83 173z"/>
<path style="fill:#7090c4; stroke:none;" d="M163 173L164 174L163 173M319 173L320 174L319 173M345 173L346 174L345 173z"/>
<path style="fill:#abc6ed; stroke:none;" d="M56 174L57 175L56 174z"/>
<path style="fill:#7090c4; stroke:none;" d="M82.6667 174.333L83.3333 174.667L82.6667 174.333z"/>
<path style="fill:#abc6ed; stroke:none;" d="M162 174L163 175L162 174M320 174L322 176L320 174M345 174L346 175L345 174z"/>
<path style="fill:#7090c4; stroke:none;" d="M55 175L56 176L55 175z"/>
<path style="fill:#abc6ed; stroke:none;" d="M81 175L80 177L81 175z"/>
<path style="fill:#7090c4; stroke:none;" d="M141 175L141 180L142 180L141 175M162 175L163 176L162 175z"/>
<path style="fill:#2e52ae; stroke:none;" d="M164 175L165 176L164 175z"/>
<path style="fill:#2f6bd1; stroke:none;" d="M320 175L321 176L320 175z"/>
<path style="fill:#7090c4; stroke:none;" d="M346 175L347 176L346 175z"/>
<path style="fill:#abc6ed; stroke:none;" d="M55 176L56 177L55 176z"/>
<path style="fill:#7090c4; stroke:none;" d="M81 176L82 177L81 176z"/>
<path style="fill:#abc6ed; stroke:none;" d="M161 176L160 179L161 176z"/>
<path style="fill:#7090c4; stroke:none;" d="M321 176L322 177L321 176z"/>
<path style="fill:#abc6ed; stroke:none;" d="M346.333 176.667L346.667 177.333L346.333 176.667z"/>
<path style="fill:#7090c4; stroke:none;" d="M54 177L55 178L54 177M80 177L81 178L80 177z"/>
<path style="fill:#abc6ed; stroke:none;" d="M322 177L323 178L322 177M54.3333 178.667L54.6667 179.333L54.3333 178.667M79 178L78 180L79 178z"/>
<path style="fill:#7090c4; stroke:none;" d="M161 178L162 179L161 178M322 178L323 179L322 178M347 178L348 179L347 178M53 179L52 184L53 184L53 179M79 179L80 180L79 179M160 179L161 180L160 179M323 179L324 180L323 179z"/>
<path style="fill:#abc6ed; stroke:none;" d="M347 179L348 180L347 179z"/>
<path style="fill:#7090c4; stroke:none;" d="M78 180L77 183L78 180z"/>
<path style="fill:#abc6ed; stroke:none;" d="M141 180L141 185L142 185L141 180M159 180L160 181L159 180M324 180L325 181L324 180M53.3333 181.667L53.6667 182.333L53.3333 181.667M77 181L78 182L77 181z"/>
<path style="fill:#7090c4; stroke:none;" d="M159 181L160 182L159 181M324 181L325 182L324 181z"/>
<path style="fill:#2f6bd1; stroke:none;" d="M348 181L349 182L348 181z"/>
<path style="fill:#abc6ed; stroke:none;" d="M158 182L159 183L158 182z"/>
<path style="fill:#2f6bd1; stroke:none;" d="M324 182L325 183L324 182z"/>
<path style="fill:#abc6ed; stroke:none;" d="M325.333 182.667L325.667 183.333L325.333 182.667M348 182L349 183L348 182M76 183L77 184L76 183z"/>
<path style="fill:#7090c4; stroke:none;" d="M158 183L159 184L158 183z"/>
<path style="fill:#abc6ed; stroke:none;" d="M52 184L53 185L52 184z"/>
<path style="fill:#7090c4; stroke:none;" d="M76 184L75 188L76 188L76 184z"/>
<path style="fill:#abc6ed; stroke:none;" d="M157 184L158 185L157 184z"/>
<path style="fill:#7090c4; stroke:none;" d="M325 184L326 185L325 184z"/>
<path style="fill:#abc6ed; stroke:none;" d="M75 185L76 186L75 185z"/>
<path style="fill:#7090c4; stroke:none;" d="M141.333 185.667L141.667 186.333L141.333 185.667M157 185L156 188L157 185z"/>
<path style="fill:#2f6bd1; stroke:none;" d="M325 185L326 186L325 185z"/>
<path style="fill:#abc6ed; stroke:none;" d="M326.333 185.667L326.667 186.333L326.333 185.667z"/>
<path style="fill:#7090c4; stroke:none;" d="M349 185L350 186L349 185M51 186L52 187L51 186z"/>
<path style="fill:#abc6ed; stroke:none;" d="M142 186L145 190L142 186M156 186L157 187L156 186M349.333 186.667L349.667 187.333L349.333 186.667M51 187L52 188L51 187M74.3333 187.667L74.6667 188.333L74.3333 187.667z"/>
<path style="fill:#7090c4; stroke:none;" d="M326 187L327 188L326 187M142 188L144 190L142 188M155 188L156 189L155 188z"/>
<path style="fill:#2f6bd1; stroke:none;" d="M326 188L327 189L326 188z"/>
<path style="fill:#7090c4; stroke:none;" d="M50.3333 189.667L50.6667 190.333L50.3333 189.667M74.3333 189.667L74.6667 190.333L74.3333 189.667z"/>
<path style="fill:#2e52ae; stroke:none;" d="M142 189L143 190L142 189z"/>
<path style="fill:#7090c4; stroke:none;" d="M154 189L155 190L154 189z"/>
<path style="fill:#2e52ae; stroke:none;" d="M156 189L157 190L156 189z"/>
<path style="fill:#abc6ed; stroke:none;" d="M327.333 189.667L327.667 190.333L327.333 189.667z"/>
<path style="fill:#2f6bd1; stroke:none;" d="M350 189L351 190L350 189z"/>
<path style="fill:#abc6ed; stroke:none;" d="M73.3333 190.667L73.6667 191.333L73.3333 190.667z"/>
<path style="fill:#2e52ae; stroke:none;" d="M144 190L145 191L144 190z"/>
<path style="fill:#7090c4; stroke:none;" d="M145 190L146 191L145 190z"/>
<path style="fill:#abc6ed; stroke:none;" d="M146 190L147 191L146 190M152 190L153 191L152 190z"/>
<path style="fill:#7090c4; stroke:none;" d="M153 190L154 191L153 190M350.333 190.667L350.667 191.333L350.333 190.667z"/>
<path style="fill:#abc6ed; stroke:none;" d="M50 191L50 194L51 194L50 191z"/>
<path style="fill:#7090c4; stroke:none;" d="M147 191L147 192L152 192L147 191M327.333 191.667L327.667 192.333L327.333 191.667M73.3333 192.667L73.6667 193.333L73.3333 192.667z"/>
<path style="fill:#abc6ed; stroke:none;" d="M350 192L350 203L351 203L350 192z"/>
<path style="fill:#2f6bd1; stroke:none;" d="M327.333 193.667L327.667 194.333L327.333 193.667z"/>
<path style="fill:#7090c4; stroke:none;" d="M49 194L49 197L50 197L49 194z"/>
<path style="fill:#abc6ed; stroke:none;" d="M72.3333 195.667L72.6667 196.333L72.3333 195.667M49 197L49 208L50 208L49 197z"/>
<path style="fill:#7090c4; stroke:none;" d="M72 197L72 200L73 200L72 197z"/>
<path style="fill:#2f6bd1; stroke:none;" d="M327 201L328 202L327 201z"/>
<path style="fill:#7090c4; stroke:none;" d="M327.333 202.667L327.667 203.333L327.333 202.667M350 203L350 206L351 206L350 203z"/>
<path style="fill:#abc6ed; stroke:none;" d="M327 204L327 207L328 207L327 204z"/>
<path style="fill:#7090c4; stroke:none;" d="M72 206L72 209L73 209L72 206z"/>
<path style="fill:#2f6bd1; stroke:none;" d="M326.333 206.667L326.667 207.333L326.333 206.667M350 206L351 207L350 206z"/>
<path style="fill:#7090c4; stroke:none;" d="M49 208L49 212L50 212L49 208z"/>
<path style="fill:#2e52ae; stroke:none;" d="M238 208L242 212L242 209L238 208z"/>
<path style="fill:#2f6bd1; stroke:none;" d="M245.333 208.667L245.667 209.333L245.333 208.667M247.333 208.667L247.667 209.333L247.333 208.667M256 209L256 210L260 218L264 214L261 215L259 208L256 209M260 208L262 210L260 208M263 208L264 209L263 208z"/>
<path style="fill:#7090c4; stroke:none;" d="M326 208L327 209L326 208z"/>
<path style="fill:#abc6ed; stroke:none;" d="M349.333 208.667L349.667 209.333L349.333 208.667M72.3333 209.667L72.6667 210.333L72.3333 209.667z"/>
<path style="fill:#7090c4; stroke:none;" d="M248.667 209.333L249.333 209.667L248.667 209.333z"/>
<path style="fill:#abc6ed; stroke:none;" d="M250 209L251 210L250 209z"/>
<path style="fill:#7090c4; stroke:none;" d="M251.667 209.333L252.333 209.667L251.667 209.333z"/>
<path style="fill:#2f6bd1; stroke:none;" d="M253 209L254 210L253 209z"/>
<path style="fill:#abc6ed; stroke:none;" d="M326.333 209.667L326.667 210.333L326.333 209.667z"/>
<path style="fill:#7090c4; stroke:none;" d="M246 210L247 211L246 210z"/>
<path style="fill:#abc6ed; stroke:none;" d="M247 210L248 211L247 210z"/>
<path style="fill:#7090c4; stroke:none;" d="M254 210L255 211L254 210z"/>
<path style="fill:#2f6bd1; stroke:none;" d="M325 210L326 211L325 210z"/>
<path style="fill:#7090c4; stroke:none;" d="M349 210L350 211L349 210M245 211L246 212L245 211z"/>
<path style="fill:#abc6ed; stroke:none;" d="M255 211L257 215L258 215L255 211z"/>
<path style="fill:#7090c4; stroke:none;" d="M256 211L257 212L256 211M325 211L326 212L325 211z"/>
<path style="fill:#2f6bd1; stroke:none;" d="M349 211L350 212L349 211z"/>
<path style="fill:#7090c4; stroke:none;" d="M73.3333 212.667L73.6667 213.333L73.3333 212.667z"/>
<path style="fill:#abc6ed; stroke:none;" d="M244 212L245 213L244 212z"/>
<path style="fill:#7090c4; stroke:none;" d="M257 212L258 213L257 212z"/>
<path style="fill:#abc6ed; stroke:none;" d="M325.333 212.667L325.667 213.333L325.333 212.667M348.333 212.667L348.667 213.333L348.333 212.667M50.3333 213.667L50.6667 214.333L50.3333 213.667z"/>
<path style="fill:#2e52ae; stroke:none;" d="M241 213L240 215L241 213z"/>
<path style="fill:#7090c4; stroke:none;" d="M243 213L244 214L243 213z"/>
<path style="fill:#2f6bd1; stroke:none;" d="M258 213L259 214L258 213M324 213L325 214L324 213z"/>
<path style="fill:#abc6ed; stroke:none;" d="M73 214L74 215L73 214M243 214L244 215L243 214z"/>
<path style="fill:#7090c4; stroke:none;" d="M258.333 214.667L258.667 215.333L258.333 214.667M324 214L325 215L324 214M348 214L349 215L348 214M50 215L51 216L50 215z"/>
<path style="fill:#2e52ae; stroke:none;" d="M241 215L240 218C235.028 214.877 234.504 221.122 234 225C237.705 223.138 241.599 219.368 241 215z"/>
<path style="fill:#7090c4; stroke:none;" d="M242 215L243 216L242 215z"/>
<path style="fill:#abc6ed; stroke:none;" d="M324 215L325 216L324 215z"/>
<path style="fill:#7090c4; stroke:none;" d="M74 216L75 219L76 219L74 216z"/>
<path style="fill:#2e52ae; stroke:none;" d="M233 216L233 219L234 219L233 216z"/>
<path style="fill:#abc6ed; stroke:none;" d="M242 216L243 217L242 216M258 216L258 220L259 220L258 216z"/>
<path style="fill:#7090c4; stroke:none;" d="M323 216L324 217L323 216z"/>
<path style="fill:#abc6ed; stroke:none;" d="M347 216L348 217L347 216M51.3333 217.667L51.6667 218.333L51.3333 217.667M74 217L75 218L74 217z"/>
<path style="fill:#2f6bd1; stroke:none;" d="M237 217L236 222L237 222L237 217z"/>
<path style="fill:#7090c4; stroke:none;" d="M241 217L242 218L241 217z"/>
<path style="fill:#abc6ed; stroke:none;" d="M323 217L324 218L323 217z"/>
<path style="fill:#7090c4; stroke:none;" d="M347.333 217.667L347.667 218.333L347.333 217.667z"/>
<path style="fill:#abc6ed; stroke:none;" d="M241 218L242 219L241 218z"/>
<path style="fill:#7090c4; stroke:none;" d="M322 218L323 219L322 218z"/>
<path style="fill:#abc6ed; stroke:none;" d="M346.333 218.667L346.667 219.333L346.333 218.667z"/>
<path style="fill:#7090c4; stroke:none;" d="M51 219L52 220L51 219z"/>
<path style="fill:#abc6ed; stroke:none;" d="M75 219L76 220L75 219z"/>
<path style="fill:#7090c4; stroke:none;" d="M240 219L241 220L240 219z"/>
<path style="fill:#2f6bd1; stroke:none;" d="M260 219L261 220L260 219M321 219L322 220L321 219z"/>
<path style="fill:#abc6ed; stroke:none;" d="M322 219L323 220L322 219M52.3333 220.667L52.6667 221.333L52.3333 220.667z"/>
<path style="fill:#7090c4; stroke:none;" d="M76 220L77 221L76 220z"/>
<path style="fill:#2f6bd1; stroke:none;" d="M239 220L238 222L239 220z"/>
<path style="fill:#abc6ed; stroke:none;" d="M240 220L241 221L240 220z"/>
<path style="fill:#7090c4; stroke:none;" d="M258 220L258 225L259 225L258 220M321 220L322 221L321 220M346 220L347 221L346 220z"/>
<path style="fill:#abc6ed; stroke:none;" d="M76 221L77 222L76 221z"/>
<path style="fill:#2e52ae; stroke:none;" d="M232 221L233 222L232 221z"/>
<path style="fill:#7090c4; stroke:none;" d="M239 221L237 226L238 226L239 221z"/>
<path style="fill:#2f6bd1; stroke:none;" d="M260 221L260 224L262 224L262 221L260 221M320 221L319 223L320 221z"/>
<path style="fill:#abc6ed; stroke:none;" d="M321 221L322 222L321 221M345.333 221.667L345.667 222.333L345.333 221.667z"/>
<path style="fill:#2f6bd1; stroke:none;" d="M346 221L347 222L346 221z"/>
<path style="fill:#7090c4; stroke:none;" d="M52.3333 222.667L52.6667 223.333L52.3333 222.667M77 222L78 223L77 222z"/>
<path style="fill:#abc6ed; stroke:none;" d="M239 222L240 223L239 222M320 222L321 223L320 222M53 223L54 227L55 227L53 223M77 223L78 224L77 223z"/>
<path style="fill:#7090c4; stroke:none;" d="M319 223L320 224L319 223M345 223L346 224L345 223z"/>
<path style="fill:#abc6ed; stroke:none;" d="M78 224L82 229L78 224z"/>
<path style="fill:#2e52ae; stroke:none;" d="M230 224L233 230C234.682 226.64 233.401 225.054 230 224z"/>
<path style="fill:#abc6ed; stroke:none;" d="M238 224L239 225L238 224z"/>
<path style="fill:#2f6bd1; stroke:none;" d="M318 224L319 225L318 224z"/>
<path style="fill:#abc6ed; stroke:none;" d="M319 224L320 225L319 224M344 224L345 225L344 224z"/>
<path style="fill:#7090c4; stroke:none;" d="M53 225L54 226L53 225M79 225L80 226L79 225z"/>
<path style="fill:#2e52ae; stroke:none;" d="M236 225L235 228L236 225z"/>
<path style="fill:#2f6bd1; stroke:none;" d="M258.333 225.667L258.667 226.333L258.333 225.667z"/>
<path style="fill:#abc6ed; stroke:none;" d="M318 225L319 226L318 225z"/>
<path style="fill:#7090c4; stroke:none;" d="M344 225L345 226L344 225M80 226L81 227L80 226z"/>
<path style="fill:#2f6bd1; stroke:none;" d="M233 226L234 227L233 226z"/>
<path style="fill:#abc6ed; stroke:none;" d="M237 226L238 227L237 226M317 226L318 227L317 226M343 226L344 227L343 226z"/>
<path style="fill:#7090c4; stroke:none;" d="M54 227L56 230L54 227M81 227L82 228L81 227z"/>
<path style="fill:#2e52ae; stroke:none;" d="M229 227L230 228L229 227z"/>
<path style="fill:#7090c4; stroke:none;" d="M236 227L237 228L236 227z"/>
<path style="fill:#abc6ed; stroke:none;" d="M316 227L317 228L316 227z"/>
<path style="fill:#7090c4; stroke:none;" d="M343 227L344 228L343 227z"/>
<path style="fill:#abc6ed; stroke:none;" d="M55 228L56 229L55 228M257 228L257 231L258 231L257 228z"/>
<path style="fill:#7090c4; stroke:none;" d="M315 228L316 229L315 228z"/>
<path style="fill:#abc6ed; stroke:none;" d="M342 228L343 229L342 228M82 229L83 230L82 229M235 229L236 230L235 229z"/>
<path style="fill:#7090c4; stroke:none;" d="M314 229L315 230L314 229M342 229L343 230L342 229z"/>
<path style="fill:#abc6ed; stroke:none;" d="M56 230L57 231L56 230M83 230L89 235L89 234L83 230z"/>
<path style="fill:#7090c4; stroke:none;" d="M84 230L85 231L84 230z"/>
<path style="fill:#2e52ae; stroke:none;" d="M228 230L228 237L229 237L228 230z"/>
<path style="fill:#7090c4; stroke:none;" d="M234 230L235 231L234 230M313 230L314 231L313 230z"/>
<path style="fill:#abc6ed; stroke:none;" d="M341 230L342 231L341 230z"/>
<path style="fill:#7090c4; stroke:none;" d="M56 231L57 232L56 231M85 231L86 232L85 231z"/>
<path style="fill:#abc6ed; stroke:none;" d="M234 231L235 232L234 231z"/>
<path style="fill:#7090c4; stroke:none;" d="M257 231L257 235L258 235L257 231M312 231L313 232L312 231M341 231L342 232L341 231z"/>
<path style="fill:#abc6ed; stroke:none;" d="M57 232L59 234L57 232z"/>
<path style="fill:#7090c4; stroke:none;" d="M86 232L87 233L86 232z"/>
<path style="fill:#2e52ae; stroke:none;" d="M231 232L232 233L231 232z"/>
<path style="fill:#7090c4; stroke:none;" d="M233 232L234 233L233 232z"/>
<path style="fill:#2f6bd1; stroke:none;" d="M260 232L259 238L260 238L262 232L260 232M310 232L309 234L310 232z"/>
<path style="fill:#7090c4; stroke:none;" d="M311 232L312 233L311 232M340 232L341 233L340 232M57 233L58 234L57 233M87 233L88 234L87 233z"/>
<path style="fill:#2f6bd1; stroke:none;" d="M228.333 233.667L228.667 234.333L228.333 233.667z"/>
<path style="fill:#abc6ed; stroke:none;" d="M233 233L234 234L233 233M310 233L311 234L310 233M339 233L340 234L339 233z"/>
<path style="fill:#2f6bd1; stroke:none;" d="M340 233L341 234L340 233z"/>
<path style="fill:#7090c4; stroke:none;" d="M58 234L61 238L58 234z"/>
<path style="fill:#2e52ae; stroke:none;" d="M231 234L229 239L230 239L231 234z"/>
<path style="fill:#7090c4; stroke:none;" d="M232 234L233 235L232 234z"/>
<path style="fill:#2f6bd1; stroke:none;" d="M304 234L305 235L304 234z"/>
<path style="fill:#7090c4; stroke:none;" d="M308 234L309 235L308 234z"/>
<path style="fill:#abc6ed; stroke:none;" d="M309 234L310 235L309 234z"/>
<path style="fill:#7090c4; stroke:none;" d="M339 234L340 235L339 234z"/>
<path style="fill:#abc6ed; stroke:none;" d="M59 235L60 236L59 235M89 235L90 236L89 235z"/>
<path style="fill:#7090c4; stroke:none;" d="M90 235L91 236L90 235z"/>
<path style="fill:#2e52ae; stroke:none;" d="M225 235L227 238L225 235z"/>
<path style="fill:#abc6ed; stroke:none;" d="M232 235L233 236L232 235z"/>
<path style="fill:#2f6bd1; stroke:none;" d="M257.333 235.667L257.667 236.333L257.333 235.667z"/>
<path style="fill:#7090c4; stroke:none;" d="M307 235L308 236L307 235M338 235L339 236L338 235z"/>
<path style="fill:#abc6ed; stroke:none;" d="M60 236L61 237L60 236M91 236L92 237L91 236z"/>
<path style="fill:#7090c4; stroke:none;" d="M231 236L232 237L231 236z"/>
<path style="fill:#2f6bd1; stroke:none;" d="M304 236L305 237L304 236z"/>
<path style="fill:#7090c4; stroke:none;" d="M305 236L306 237L305 236z"/>
<path style="fill:#abc6ed; stroke:none;" d="M306 236L307 237L306 236M337 236L336 238L337 236M92 237L93 238L92 237z"/>
<path style="fill:#7090c4; stroke:none;" d="M93.6667 237.333L94.3333 237.667L93.6667 237.333z"/>
<path style="fill:#abc6ed; stroke:none;" d="M231 237L232 238L231 237z"/>
<path style="fill:#2f6bd1; stroke:none;" d="M261 237L262 241L263 241L261 237M302 237L303 238L302 237z"/>
<path style="fill:#7090c4; stroke:none;" d="M303 237L304 238L303 237z"/>
<path style="fill:#abc6ed; stroke:none;" d="M304 237L305 238L304 237z"/>
<path style="fill:#2f6bd1; stroke:none;" d="M337 237L338 238L337 237z"/>
<path style="fill:#abc6ed; stroke:none;" d="M61 238L64 241L61 238M94 238L94 239L98 240L98 239L94 238z"/>
<path style="fill:#7090c4; stroke:none;" d="M96 238L97 239L96 238M230 238L231 239L230 238z"/>
<path style="fill:#2f6bd1; stroke:none;" d="M296 238L297 239L296 238M300 238L301 239L300 238z"/>
<path style="fill:#7090c4; stroke:none;" d="M301 238L302 239L301 238z"/>
<path style="fill:#abc6ed; stroke:none;" d="M302.667 238.333L303.333 238.667L302.667 238.333z"/>
<path style="fill:#7090c4; stroke:none;" d="M336 238L337 239L336 238M61 239L62 240L61 239M98.6667 239.333L99.3333 239.667L98.6667 239.333z"/>
<path style="fill:#2e52ae; stroke:none;" d="M225 239L226 240L225 239M228.333 239.667L228.667 240.333L228.333 239.667z"/>
<path style="fill:#2f6bd1; stroke:none;" d="M258 239L260 241L258 239M298 239L299 240L298 239z"/>
<path style="fill:#7090c4; stroke:none;" d="M299 239L300 240L299 239z"/>
<path style="fill:#abc6ed; stroke:none;" d="M300 239L301 240L300 239M335 239L336 240L335 239z"/>
<path style="fill:#7090c4; stroke:none;" d="M62 240L63 241L62 240z"/>
<path style="fill:#abc6ed; stroke:none;" d="M100 240L101 241L100 240z"/>
<path style="fill:#7090c4; stroke:none;" d="M101 240L102 241L101 240M229 240L230 241L229 240M257 240C263.182 246.313 280.543 243 289 243L289 242C278.864 242 266.456 244.007 257 240z"/>
<path style="fill:#2f6bd1; stroke:none;" d="M296 240L297 241L296 240z"/>
<path style="fill:#7090c4; stroke:none;" d="M297 240L298 241L297 240z"/>
<path style="fill:#abc6ed; stroke:none;" d="M298 240L299 241L298 240M334 240L335 241L334 240z"/>
<path style="fill:#7090c4; stroke:none;" d="M63 241L64 242L63 241z"/>
<path style="fill:#abc6ed; stroke:none;" d="M103 241L104 242L103 241z"/>
<path style="fill:#7090c4; stroke:none;" d="M104.667 241.333L105.333 241.667L104.667 241.333z"/>
<path style="fill:#2e52ae; stroke:none;" d="M226 241L228 243L228 241L226 241z"/>
<path style="fill:#abc6ed; stroke:none;" d="M229 241L230 242L229 241M257 241L258 242L257 241z"/>
<path style="fill:#2f6bd1; stroke:none;" d="M290 241L291 242L290 241z"/>
<path style="fill:#7090c4; stroke:none;" d="M293 241L294 242L293 241z"/>
<path style="fill:#abc6ed; stroke:none;" d="M294.667 241.333L295.333 241.667L294.667 241.333M64 242L65 243L64 242M107 242L107 243L111 243L107 242z"/>
<path style="fill:#7090c4; stroke:none;" d="M111 242L111 243L195 243L169 242L111 242z"/>
<path style="fill:#2e52ae; stroke:none;" d="M197 242L200 245L197 242M225 242L220 256L221 256C223.134 251.68 227.61 246.706 225 242z"/>
<path style="fill:#7090c4; stroke:none;" d="M228 242L227 244L228 242z"/>
<path style="fill:#abc6ed; stroke:none;" d="M258 242L259 243L258 242M289 242L289 243L292 243L289 242M332 242L333 243L332 242z"/>
<path style="fill:#7090c4; stroke:none;" d="M65 243L66 244L65 243z"/>
<path style="fill:#abc6ed; stroke:none;" d="M195 243L195 244L199 246L195 243z"/>
<path style="fill:#7090c4; stroke:none;" d="M197 243L198 244L197 243z"/>
<path style="fill:#abc6ed; stroke:none;" d="M228 243L229 244L228 243z"/>
<path style="fill:#7090c4; stroke:none;" d="M332 243L333 244L332 243z"/>
<path style="fill:#abc6ed; stroke:none;" d="M66 244L67 245L66 244z"/>
<path style="fill:#7090c4; stroke:none;" d="M198 244L199 245L198 244z"/>
<path style="fill:#abc6ed; stroke:none;" d="M227 244L226 247L227 244z"/>
<path style="fill:#7090c4; stroke:none;" d="M331 244L332 245L331 244z"/>
<path style="fill:#abc6ed; stroke:none;" d="M67 245L68 246L67 245z"/>
<path style="fill:#2f6bd1; stroke:none;" d="M226 245L227 246L226 245z"/>
<path style="fill:#7090c4; stroke:none;" d="M330 245L331 246L330 245z"/>
<path style="fill:#abc6ed; stroke:none;" d="M68 246L69 247L68 246z"/>
<path style="fill:#7090c4; stroke:none;" d="M199 246L200 247L199 246M329 246L330 247L329 246z"/>
<path style="fill:#abc6ed; stroke:none;" d="M69 247L70 248L69 247M199 247L200 248L199 247z"/>
<path style="fill:#2e52ae; stroke:none;" d="M200 247L201 248L200 247z"/>
<path style="fill:#7090c4; stroke:none;" d="M328 247L329 248L328 247M70 248L70 250L72 250L70 248z"/>
<path style="fill:#2e52ae; stroke:none;" d="M218 248L218 252L219 252L218 248M220.333 248.667L220.667 249.333L220.333 248.667z"/>
<path style="fill:#abc6ed; stroke:none;" d="M225 248L224 251L225 248M326 248L324 251L326 248z"/>
<path style="fill:#7090c4; stroke:none;" d="M327 248L328 249L327 248M224 249L225 250L224 249z"/>
<path style="fill:#2f6bd1; stroke:none;" d="M326 249L327 250L326 249z"/>
<path style="fill:#7090c4; stroke:none;" d="M72 250L74 252L72 250z"/>
<path style="fill:#abc6ed; stroke:none;" d="M73 250L74 251L73 250z"/>
<path style="fill:#2f6bd1; stroke:none;" d="M223 250L224 251L223 250M325 250L326 251L325 250z"/>
<path style="fill:#abc6ed; stroke:none;" d="M74 251L75 252L74 251z"/>
<path style="fill:#7090c4; stroke:none;" d="M223 251L224 252L223 251M323 251L324 252L323 251z"/>
<path style="fill:#abc6ed; stroke:none;" d="M75 252L76 253L75 252z"/>
<path style="fill:#2f6bd1; stroke:none;" d="M222.333 252.667L222.667 253.333L222.333 252.667z"/>
<path style="fill:#abc6ed; stroke:none;" d="M223 252L223 259L224 259L223 252M321 252L320 254L321 252z"/>
<path style="fill:#7090c4; stroke:none;" d="M322 252L323 253L322 252M76 253L78 255L76 253z"/>
<path style="fill:#abc6ed; stroke:none;" d="M77 253L78 254L77 253z"/>
<path style="fill:#2f6bd1; stroke:none;" d="M321 253L322 254L321 253z"/>
<path style="fill:#abc6ed; stroke:none;" d="M78 254L79 255L78 254z"/>
<path style="fill:#7090c4; stroke:none;" d="M222.333 254.667L222.667 255.333L222.333 254.667z"/>
<path style="fill:#abc6ed; stroke:none;" d="M318 254L317 256L318 254z"/>
<path style="fill:#7090c4; stroke:none;" d="M319 254L320 255L319 254M79 255L80 256L79 255z"/>
<path style="fill:#abc6ed; stroke:none;" d="M80 255L81 256L80 255z"/>
<path style="fill:#2e52ae; stroke:none;" d="M217 255L218 256L217 255z"/>
<path style="fill:#7090c4; stroke:none;" d="M318 255L319 256L318 255M81 256L83 258L81 256z"/>
<path style="fill:#abc6ed; stroke:none;" d="M82 256L83 257L82 256z"/>
<path style="fill:#2e52ae; stroke:none;" d="M200 256L200 261L201 261L200 256M221 256L221 260L222 260L221 256z"/>
<path style="fill:#abc6ed; stroke:none;" d="M315 256L316 257L315 256z"/>
<path style="fill:#7090c4; stroke:none;" d="M316 256L317 257L316 256z"/>
<path style="fill:#abc6ed; stroke:none;" d="M83 257L84 258L83 257z"/>
<path style="fill:#2e52ae; stroke:none;" d="M217 257L218 258L217 257M219.333 257.667L219.667 258.333L219.333 257.667z"/>
<path style="fill:#abc6ed; stroke:none;" d="M313 257L314 258L313 257z"/>
<path style="fill:#7090c4; stroke:none;" d="M314 257L315 258L314 257z"/>
<path style="fill:#2f6bd1; stroke:none;" d="M315 257L316 258L315 257z"/>
<path style="fill:#7090c4; stroke:none;" d="M84 258L85 259L84 258z"/>
<path style="fill:#abc6ed; stroke:none;" d="M85 258L86 259L85 258M311 258L312 259L311 258z"/>
<path style="fill:#7090c4; stroke:none;" d="M312 258L313 259L312 258z"/>
<path style="fill:#2f6bd1; stroke:none;" d="M313 258L314 259L313 258z"/>
<path style="fill:#7090c4; stroke:none;" d="M86 259L87 260L86 259z"/>
<path style="fill:#abc6ed; stroke:none;" d="M87 259L88 260L87 259z"/>
<path style="fill:#7090c4; stroke:none;" d="M223 259L224 260L223 259z"/>
<path style="fill:#abc6ed; stroke:none;" d="M309 259L310 260L309 259z"/>
<path style="fill:#7090c4; stroke:none;" d="M310.667 259.333L311.333 259.667L310.667 259.333M88 260L89 261L88 260z"/>
<path style="fill:#abc6ed; stroke:none;" d="M89.6667 260.333L90.3333 260.667L89.6667 260.333M199 260L200 261L199 260z"/>
<path style="fill:#2e52ae; stroke:none;" d="M219 260L220 261L219 260M222 260L226 265L222 260z"/>
<path style="fill:#abc6ed; stroke:none;" d="M224 260L225 261L224 260M307 260L308 261L307 260z"/>
<path style="fill:#7090c4; stroke:none;" d="M308 260L309 261L308 260z"/>
<path style="fill:#2f6bd1; stroke:none;" d="M309 260L310 261L309 260z"/>
<path style="fill:#7090c4; stroke:none;" d="M91 261L92 262L91 261z"/>
<path style="fill:#abc6ed; stroke:none;" d="M92 261L93 262L92 261z"/>
<path style="fill:#7090c4; stroke:none;" d="M199 261L200 262L199 261M224 261L225 262L224 261z"/>
<path style="fill:#abc6ed; stroke:none;" d="M304.667 261.333L305.333 261.667L304.667 261.333z"/>
<path style="fill:#7090c4; stroke:none;" d="M306 261L307 262L306 261M93 262L94 263L93 262z"/>
<path style="fill:#abc6ed; stroke:none;" d="M94.6667 262.333L95.3333 262.667L94.6667 262.333M198 262L197 264L198 262z"/>
<path style="fill:#7090c4; stroke:none;" d="M225 262L226 263L225 262z"/>
<path style="fill:#abc6ed; stroke:none;" d="M301 262L302 263L301 262z"/>
<path style="fill:#7090c4; stroke:none;" d="M302.667 262.333L303.333 262.667L302.667 262.333z"/>
<path style="fill:#2f6bd1; stroke:none;" d="M314 262L315 263L314 262z"/>
<path style="fill:#7090c4; stroke:none;" d="M96.6667 263.333L97.3333 263.667L96.6667 263.333z"/>
<path style="fill:#abc6ed; stroke:none;" d="M98.6667 263.333L99.3333 263.667L98.6667 263.333z"/>
<path style="fill:#7090c4; stroke:none;" d="M198 263L199 264L198 263z"/>
<path style="fill:#2e52ae; stroke:none;" d="M217.667 263.333L218.333 263.667L217.667 263.333M220.667 263.333L221.333 263.667L220.667 263.333z"/>
<path style="fill:#7090c4; stroke:none;" d="M226 263L228 265L226 263z"/>
<path style="fill:#abc6ed; stroke:none;" d="M227 263L228 264L227 263M296 263L296 264L299 264L296 263z"/>
<path style="fill:#7090c4; stroke:none;" d="M299.667 263.333L300.333 263.667L299.667 263.333M99 264L99 265L102 265L99 264z"/>
<path style="fill:#abc6ed; stroke:none;" d="M102.667 264.333L103.333 264.667L102.667 264.333M195 264L196 265L195 264z"/>
<path style="fill:#7090c4; stroke:none;" d="M196.667 264.333L197.333 264.667L196.667 264.333z"/>
<path style="fill:#abc6ed; stroke:none;" d="M228 264L229 265L228 264M290 264L290 265L294 265L290 264z"/>
<path style="fill:#7090c4; stroke:none;" d="M294 264L294 265L297 265L294 264z"/>
<path style="fill:#2f6bd1; stroke:none;" d="M297 264L298 265L297 264z"/>
<path style="fill:#7090c4; stroke:none;" d="M103 265L103 266L195 266L167 265L103 265M229 265L229 266L289 266L270 265L229 265z"/>
<path style="fill:#2f6bd1; stroke:none;" d="M289 265L289 266L294 266L289 265z"/>
<path style="fill:#2e52ae; stroke:none;" d="M224.333 269.667L224.667 270.333L224.333 269.667M192 270L193 271L192 270M226 271L226 272L231 271L226 271z"/>
</svg>
